# xmcd
#
# Track frame offsets:
#   150
#   13270
#   30615
#   57987
#   76017
#   92245
#   109760
#   128331
#   150695
#   172093
#   184853
#   204691
#   223321
#   242097
#   262680
#   282080
#   298421
#   314728
#   332027
#
# Disc length: 4635 seconds
#
# Revision: 0
# Processed by: cddbd v1.5PL3 Copyright (c) Steve Scherf et al.
# Submitted via: Media_Universe 3.0
#
DISCID=1b121913
DTITLE=Lee Ann Womack - Something Worth Leaving Behind
DYEAR=1900
DGENRE=Country
TTITLE0=Something Worth Leaving Behind
TTITLE1=I Saw Your Light
TTITLE2=When You Gonna Run To Me
TTITLE3=Talk To Me
TTITLE4=Forever Everyday
TTITLE5=Orphan Train
TTITLE6=I Need You
TTITLE7=You Should've Lied
TTITLE8=He'll Be Back
TTITLE9=Let's Surrender
TTITLE10=Blame It On Me
TTITLE11=Closing This Memory Down
TTITLE12=Mendocino County Line
TTITLE13=A Little Past Little Rock
TTITLE14=Stronger Than I Am
TTITLE15=why They Call It Falling
TTITLE16=Ashes By Now
TTITLE17=Does My Ring Burn Your Finger
TTITLE18=
EXTD=
EXTT0=
EXTT1=
EXTT2=
EXTT3=
EXTT4=
EXTT5=
EXTT6=
EXTT7=
EXTT8=
EXTT9=
EXTT10=
EXTT11=
EXTT12=
EXTT13=
EXTT14=
EXTT15=
EXTT16=
EXTT17=
EXTT18=
PLAYORDER=
